inDegrees=yes
name=ik_S42_A13_T02
DataType=double
version=3
OpenSimVersion=4.3-2021-08-27-4bc7ad9
endheader
time	pelvis_tilt	pelvis_list	pelvis_rotation	pelvis_tx	pelvis_ty	pelvis_tz	hip_flexion_r	hip_adduction_r	hip_rotation_r	knee_angle_r	knee_angle_r_beta	ankle_angle_r	subtalar_angle_r	mtp_angle_r	hip_flexion_l	hip_adduction_l	hip_rotation_l	knee_angle_l	knee_angle_l_beta	ankle_angle_l	subtalar_angle_l	mtp_angle_l	lumbar_extension	lumbar_bending	lumbar_rotation	arm_flex_r	arm_add_r	arm_rot_r	elbow_flex_r	pro_sup_r	wrist_flex_r	wrist_dev_r	arm_flex_l	arm_add_l	arm_rot_l	elbow_flex_l	pro_sup_l	wrist_flex_l	wrist_dev_l
3.140000000000002	0.7886124454576707	1.951139344070125	9.876629179991495	0	0.9399999999999999	0	23.99438821338472	-8.2555623468956	-7.212491327071658	28.46545595760625	0.4968159295416644	0	0	0	23.99438821338472	-8.2555623468956	-7.212491327071658	28.46545595760625	0.4968159295416644	0	0	0	1.414925851998103	1.836442137483997	8.264700187829945	48.127150657458	-33.44334176934559	0.06001614731938985	50.17976417250389	111.7507699742342	0	0	81.32082141414317	-9.984114942537255	10.7110273629012	14.3780555956678	70.1603462331435	0	0
3.160000000000002	0.8118026907361012	1.890870022432826	9.874220178346759	0	0.9399999999999999	0	24.01015673126542	-8.259764113482641	-7.216813510493035	28.48026188772701	0.4970743417710919	0	0	0	24.01015673126542	-8.259764113482641	-7.216813510493035	28.48026188772701	0.4970743417710919	0	0	0	1.422724583671064	1.776995071975247	8.397995850117887	48.03054461601429	-33.49945470488389	-0.3712429723657339	49.22520351561104	111.6090320888783	0	0	81.10070618555163	-9.906432326457598	10.94084542798932	14.52067287405281	69.6818897794995	0	0
3.180000000000002	0.8220540476375694	1.843727615215239	10.05749862437018	0	0.9399999999999999	0	24.02471559839958	-8.263656393228704	-7.220813268359974	28.4938744419486	0.4973119256618649	0	0	0	24.02471559839958	-8.263656393228704	-7.220813268359974	28.4938744419486	0.4973119256618649	0	0	0	1.428317115907927	1.729542926040513	8.338292773268638	49.87980079630647	-33.61221822697147	0.7160428861456034	47.5692023678437	111.7730300193724	0	0	81.09380436763459	-9.723055980885484	11.05615027297993	14.44602031841426	69.31057386246228	0	0
3.200000000000002	0.8270485109982756	1.840990830196969	10.00203115053748	0	0.9399999999999999	0	24.03086024994391	-8.265290101362863	-7.22249595782638	28.49964341642519	0.4974126132609449	0	0	0	24.03086024994391	-8.265290101362863	-7.22249595782638	28.49964341642519	0.4974126132609449	0	0	0	1.430367813802701	1.728189416792136	8.407859854289688	49.86855919158407	-33.62065815216778	0.661227993524933	47.48104065993493	111.6424643405757	0	0	80.52261170589526	-9.350573858156949	10.53142168770139	14.58153262614444	69.32230116279442	0	0
3.220000000000002	0.8630832160316995	1.751066890876052	10.4146167082952	0	0.9399999999999999	0	24.04529899226024	-8.269147425070862	-7.226462326863552	28.5131292952341	0.4976479862486854	0	0	0	24.04529899226024	-8.269147425070862	-7.226462326863552	28.5131292952341	0.4976479862486854	0	0	0	1.45341950236401	1.633164381440115	8.32367203393907	51.26944908061886	-33.78083283146464	2.748661930644651	46.9839807932522	109.0884265781681	0	0	80.13909121953314	-8.774391035296938	10.62427388573634	14.81670488334298	69.09549477751871	0	0
3.240000000000002	0.8916391207369818	1.713591027169652	10.62209396394318	0	0.9399999999999999	0	24.06209705897695	-8.273624369340963	-7.231071220216086	28.52883321735159	0.4979220713951124	0	0	0	24.06209705897695	-8.273624369340963	-7.231071220216086	28.52883321735159	0.4979220713951124	0	0	0	1.481555804919327	1.588500984519009	8.274886710205088	51.9233743376248	-33.83723448140725	4.285193563517553	48.00737319824772	106.5191617075454	0	0	79.44315696143164	-7.857103706670348	10.21508649704521	15.01489178201597	68.59157197334159	0	0
3.260000000000002	0.9144566497666052	1.679489816782328	10.82030698339876	0	0.9399999999999999	0	24.07508691997131	-8.27708455760664	-7.234635074645005	28.54096671755961	0.4981338409235337	0	0	0	24.07508691997131	-8.27708455760664	-7.234635074645005	28.54096671755961	0.4981338409235337	0	0	0	1.501099616541024	1.548573191593574	8.231575914988035	52.48333483225854	-33.72234955218151	5.785654271728736	48.77267643345542	105.8544471218667	0	0	79.09320127125	-7.056393947398791	9.718771252047789	14.82831396253395	68.35362118524388	0	0
3.280000000000002	0.9290134901792259	1.668747247952101	10.96650969489577	0	0.9399999999999999	0	24.08638707207592	-8.280085076572714	-7.237729874059215	28.55154233065015	0.4983184201923805	0	0	0	24.08638707207592	-8.280085076572714	-7.237729874059215	28.55154233065015	0.4983184201923805	0	0	0	1.518649672704938	1.531082885609923	8.13641610313935	53.17972136384056	-33.34354706120116	7.33758960378843	48.90692147084782	104.8660062535964	0	0	78.64553197729808	-6.174165719779777	9.202037584667329	14.21397564088886	68.42428977205367	0	0
3.300000000000002	0.9349335333674983	1.621775516218731	11.21864614187681	0	0.9399999999999999	0	24.09879462131151	-8.283375256458656	-7.241125894570354	28.56315632402429	0.4985211226160641	0	0	0	24.09879462131151	-8.283375256458656	-7.241125894570354	28.56315632402429	0.4985211226160641	0	0	0	1.520075313797062	1.477835131396269	8.003155840902881	53.98270174892269	-32.8964660196373	8.521778121762594	49.33706844543717	103.3366588448389	0	0	78.2877242730743	-5.516838393004824	8.947504758421799	14.05243162647588	68.87221267026081	0	0
3.320000000000003	0.9614766988788473	1.58957849479562	11.16726575737027	0	0.9399999999999999	0	24.11252274098017	-8.287011131531676	-7.244881255398755	28.57600831634919	0.4987454321975747	0	0	0	24.11252274098017	-8.287011131531676	-7.244881255398755	28.57600831634919	0.4987454321975747	0	0	0	1.535593905375682	1.445991017674691	8.125869386777282	53.88629425671079	-32.99000688967393	8.459022862613022	50.36577784825111	102.6081637332211	0	0	77.83651846534981	-4.920554996600347	8.677846266230091	13.81006499175419	69.07375228273885	0	0
3.340000000000003	0.9939693551426003	1.56254124563368	11.33699730278851	0	0.9399999999999999	0	24.12275369306862	-8.289712886945676	-7.247675521320564	28.58560171572444	0.4989128686031316	0	0	0	24.12275369306862	-8.289712886945676	-7.247675521320564	28.58560171572444	0.4989128686031316	0	0	0	1.566965113921409	1.408034478807694	7.997281948777393	54.6824704755885	-32.47502368020285	9.37348045819958	50.35001002799953	101.9185407412597	0	0	77.32428632861173	-4.387966540350672	8.359845249052732	13.6334672168283	69.36454836335037	0	0
